<svg id="Ebene_1" data-name="Ebene 1" xmlns="http://www.w3.org/2000/svg" viewBox="0 0 128 128">
    <defs>
        <style>.cls-1{fill:#4663a8;}.cls-2{fill:#fff;}</style>
    </defs>
    <title>ext_icon</title>
    <rect id="rect3390" class="cls-1" width="128" height="128"/>
    <g id="g3027">
        <path id="path3029" class="cls-2"
              d="M26.24,103.73h15.4V88.33H26.24Zm18.6,0h17V88.33h-17Zm-18.6-18.6h15.4v-17H26.24Zm18.6,0h17v-17h-17Zm-18.6-20.4h15.4V49.33H26.24Zm39,39h17V88.33h-17Zm-20.4-39h17V49.33h-17Zm40.8,39H101V88.33H85.64Zm-20.4-18.6h17v-17h-17Zm-18.6-46V23.73a2.12,2.12,0,0,0-1.8-1.8h-3.4a2.12,2.12,0,0,0-1.8,1.8v15.4a2.12,2.12,0,0,0,1.8,1.8h3.4a2.12,2.12,0,0,0,1.8-1.8Zm39,46H101v-17H85.64Zm-20.4-20.4h17V49.33h-17Zm20.4,0H101V49.33H85.64Zm1.8-25.6V23.73a2.12,2.12,0,0,0-1.8-1.8h-3.4a2.12,2.12,0,0,0-1.8,1.8v15.4a2.12,2.12,0,0,0,1.8,1.8h3.4a2.12,2.12,0,0,0,1.8-1.8Zm20.4-3.4v68a6.83,6.83,0,0,1-6.8,6.8H26.24a6.83,6.83,0,0,1-6.8-6.8v-68a6.83,6.83,0,0,1,6.8-6.8H33v-5.2a8.2,8.2,0,0,1,8.4-8.4h3.4a8.2,8.2,0,0,1,8.4,8.4v5.2h20.4v-5.2a8.2,8.2,0,0,1,8.4-8.4h3.4a8.2,8.2,0,0,1,8.4,8.4v5.2h6.8a6.5,6.5,0,0,1,4.8,2A5.68,5.68,0,0,1,107.84,35.73Z"/>
    </g>
</svg>