<?xml version="1.0" encoding="UTF-8" standalone="no"?>
<svg
   xmlns:dc="http://purl.org/dc/elements/1.1/"
   xmlns:cc="http://creativecommons.org/ns#"
   xmlns:rdf="http://www.w3.org/1999/02/22-rdf-syntax-ns#"
   xmlns:svg="http://www.w3.org/2000/svg"
   xmlns="http://www.w3.org/2000/svg"
   xml:space="preserve"
   enable-background="new 0 0 64 64"
   viewBox="0 0 64 64"
   y="0px"
   x="0px"
   id="Ebene_1"
   version="1.1"><metadata
     id="metadata3520"><rdf:RDF><cc:Work
         rdf:about=""><dc:format>image/svg+xml</dc:format><dc:type
           rdf:resource="http://purl.org/dc/dcmitype/StillImage" /><dc:title></dc:title></cc:Work></rdf:RDF></metadata><defs
     id="defs3518" /><rect
     id="rect3508"
     height="64"
     width="64"
     fill="#4663A8" /><g
     transform="matrix(1,0,0,-1,91.118644,1297.8644)"
     id="g3027"><path
       d="M-78,1246h7.7v7.7H-78V1246z M-68.7,1246h8.5v7.7h-8.5   V1246z M-78,1255.3h7.7v8.5H-78V1255.3z M-68.7,1255.3h8.5v8.5h-8.5V1255.3z M-78,1265.5h7.7v7.7H-78V1265.5z M-58.5,1246h8.5v7.7   h-8.5V1246z M-68.7,1265.5h8.5v7.7h-8.5V1265.5z M-48.3,1246h7.7v7.7h-7.7V1246z M-58.5,1255.3h8.5v8.5h-8.5V1255.3z M-67.8,1278.3   v7.7c0,0.2-0.1,0.4-0.3,0.6c-0.2,0.2-0.4,0.3-0.6,0.3h-1.7c-0.2,0-0.4-0.1-0.6-0.3c-0.2-0.2-0.3-0.4-0.3-0.6v-7.7   c0-0.2,0.1-0.4,0.3-0.6c0.2-0.2,0.4-0.3,0.6-0.3h1.7c0.2,0,0.4,0.1,0.6,0.3C-67.9,1277.9-67.8,1278.1-67.8,1278.3z M-48.3,1255.3   h7.7v8.5h-7.7V1255.3z M-58.5,1265.5h8.5v7.7h-8.5V1265.5z M-48.3,1265.5h7.7v7.7h-7.7V1265.5z M-47.4,1278.3v7.7   c0,0.2-0.1,0.4-0.3,0.6c-0.2,0.2-0.4,0.3-0.6,0.3H-50c-0.2,0-0.4-0.1-0.6-0.3c-0.2-0.2-0.3-0.4-0.3-0.6v-7.7c0-0.2,0.1-0.4,0.3-0.6   c0.2-0.2,0.4-0.3,0.6-0.3h1.7c0.2,0,0.4,0.1,0.6,0.3C-47.5,1277.9-47.4,1278.1-47.4,1278.3z M-37.2,1280v-34c0-0.9-0.3-1.7-1-2.4   s-1.5-1-2.4-1H-78c-0.9,0-1.7,0.3-2.4,1s-1,1.5-1,2.4v34c0,0.9,0.3,1.7,1,2.4c0.7,0.7,1.5,1,2.4,1h3.4v2.6c0,1.2,0.4,2.2,1.2,3   c0.8,0.8,1.8,1.2,3,1.2h1.7c1.2,0,2.2-0.4,3-1.2c0.8-0.8,1.2-1.8,1.2-3v-2.6h10.2v2.6c0,1.2,0.4,2.2,1.2,3c0.8,0.8,1.8,1.2,3,1.2   h1.7c1.2,0,2.2-0.4,3-1.2c0.8-0.8,1.2-1.8,1.2-3v-2.6h3.4c0.9,0,1.7-0.3,2.4-1C-37.5,1281.7-37.2,1280.9-37.2,1280z"
       fill="#FFFFFF"
       id="path3029" /></g><rect
     id="rect3512"
     height="26.1"
     width="26.1"
     stroke-miterlimit="10"
     stroke="#3E3D40"
     fill="#FFFFFF"
     y="32.7"
     x="31" /><g
     transform="matrix(1,0,0,-1,53.152542,1353.7627)"
     id="g3027_1_"><path
       d="   M-4.6,1315c-0.3,0-0.6-0.1-0.8-0.3l-2.4-2.4c-0.2-0.2-0.3-0.5-0.3-0.8c0-0.3,0.1-0.6,0.4-0.8c0,0,0.1,0.1,0.2,0.2   c0.1,0.1,0.2,0.2,0.2,0.2s0.1,0.1,0.2,0.2c0.1,0.1,0.2,0.1,0.3,0.1c0.1,0,0.2,0,0.3,0c0.3,0,0.6-0.1,0.8-0.3   c0.2-0.2,0.3-0.5,0.3-0.8c0-0.1,0-0.2,0-0.3s-0.1-0.2-0.1-0.3c-0.1-0.1-0.1-0.2-0.2-0.2s-0.1-0.1-0.2-0.2c-0.1-0.1-0.2-0.2-0.2-0.2   c0.2-0.3,0.5-0.4,0.8-0.4c0.3,0,0.6,0.1,0.8,0.3l2.4,2.3c0.2,0.2,0.3,0.5,0.3,0.8c0,0.3-0.1,0.6-0.3,0.8l-1.7,1.7   C-4,1314.9-4.3,1315-4.6,1315z M-12.6,1307c-0.3,0-0.6-0.1-0.8-0.3l-2.4-2.3c-0.2-0.2-0.3-0.5-0.3-0.8c0-0.3,0.1-0.6,0.3-0.8   l1.7-1.7c0.2-0.2,0.5-0.3,0.8-0.3c0.3,0,0.6,0.1,0.8,0.3l2.4,2.4c0.2,0.2,0.3,0.5,0.3,0.8c0,0.3-0.1,0.6-0.4,0.8   c0,0-0.1-0.1-0.2-0.2c-0.1-0.1-0.2-0.2-0.2-0.2c0,0-0.1-0.1-0.2-0.2c-0.1-0.1-0.2-0.1-0.3-0.1c-0.1,0-0.2,0-0.3,0   c-0.3,0-0.6,0.1-0.8,0.3c-0.2,0.2-0.3,0.5-0.3,0.8c0,0.1,0,0.2,0,0.3c0,0.1,0.1,0.2,0.1,0.3c0.1,0.1,0.1,0.2,0.2,0.2   c0,0,0.1,0.1,0.2,0.2c0.1,0.1,0.2,0.2,0.2,0.2C-12,1306.9-12.3,1307-12.6,1307z M-4.6,1317.2c0.9,0,1.7-0.3,2.3-1l1.7-1.7   c0.6-0.6,0.9-1.4,0.9-2.3c0-0.9-0.3-1.7-1-2.3l-2.4-2.3c-0.6-0.6-1.4-0.9-2.3-0.9c-0.9,0-1.7,0.3-2.4,1l-1-1c0.7-0.7,1-1.4,1-2.4   c0-0.9-0.3-1.7-1-2.3l-2.4-2.4c-0.6-0.6-1.4-1-2.3-1s-1.7,0.3-2.3,1l-1.7,1.7c-0.6,0.6-0.9,1.4-0.9,2.3c0,0.9,0.3,1.7,1,2.3   l2.4,2.3c0.6,0.6,1.4,0.9,2.3,0.9c0.9,0,1.7-0.3,2.4-1l1,1c-0.7,0.7-1,1.4-1,2.4c0,0.9,0.3,1.7,1,2.3l2.4,2.4   C-6.3,1316.9-5.5,1317.2-4.6,1317.2z"
       stroke-miterlimit="10"
       stroke-width="0.25"
       stroke="#545353"
       fill="#494848"
       id="path3029_1_" /></g></svg>